<svg xmlns="http://www.w3.org/2000/svg" width="84.407" height="78.832" viewBox="0 0 84.407 78.832">
  <g id="noun_Check_1150137" transform="translate(-5.031 -8.002)">
    <g id="Grupo_293" data-name="Grupo 293" transform="translate(5.031 8.001)">
      <path id="Trazado_483" data-name="Trazado 483" d="M44.621,960.364q-.82,0-1.642.029a39.414,39.414,0,1,0,39.534,29.181,3.754,3.754,0,1,0-7.244,1.936A31.934,31.934,0,1,1,63.244,974a3.757,3.757,0,0,0,4.429-6.071,39.39,39.39,0,0,0-23.052-7.567ZM85.5,963.15a3.755,3.755,0,0,0-2.552,1.2c-9.9,10.353-29.671,31.744-40.649,43.317l-13.2-11.643a3.76,3.76,0,1,0-4.986,5.631l15.954,14.078a3.755,3.755,0,0,0,5.22-.235c10.5-10.982,32.724-35.148,43.083-45.986A3.754,3.754,0,0,0,85.5,963.15Z" transform="translate(-5.031 -960.364)" fill="#802e87"/>
    </g>
  </g>
</svg>
