<svg id="noun_medical_1061791" xmlns="http://www.w3.org/2000/svg" width="33.887" height="34.357" viewBox="0 0 33.887 34.357">
  <path id="Trazado_1513" data-name="Trazado 1513" d="M2.708,14.834a28.976,28.976,0,0,0,5.225.491,24.038,24.038,0,0,0,9.258-1.789v5.856l2.069.982.7.351V13.537A24,24,0,0,0,29.22,15.29a28.976,28.976,0,0,0,5.225-.491A1.351,1.351,0,0,0,35.5,13.747a1.324,1.324,0,0,0-.631-1.368,17.438,17.438,0,0,1-5.786-5.3,1.721,1.721,0,0,0-1.192-.772,1.818,1.818,0,0,0-1.4.351,23.286,23.286,0,0,1-6.453,3.261v-2.1A3.528,3.528,0,0,0,21.89,3.192,3.6,3.6,0,0,0,17.226,1.3a3.516,3.516,0,0,0-1.859,4.629,3.447,3.447,0,0,0,1.859,1.859v2.1a23.017,23.017,0,0,1-6.488-3.261,1.818,1.818,0,0,0-1.4-.351,1.721,1.721,0,0,0-1.192.772,17.434,17.434,0,0,1-5.856,5.33,1.3,1.3,0,0,0-.631,1.368A1.347,1.347,0,0,0,2.708,14.834Z" transform="translate(-1.631 -1.027)" fill="#2a7de1"/>
  <path id="Trazado_1514" data-name="Trazado 1514" d="M48.806,82.209V76.6L46,75.3v6.909a1.4,1.4,0,0,0,2.806,0Z" transform="translate(-30.44 -49.253)" fill="#2a7de1"/>
  <path id="Trazado_1515" data-name="Trazado 1515" d="M57,49.375l3.226,1.508a3.5,3.5,0,0,0,1.262-4.8,3.64,3.64,0,0,0-1.508-1.4,1.391,1.391,0,0,0-1.543,2.315,1.1,1.1,0,0,0,.351.175.758.758,0,0,1,.351.982.845.845,0,0,1-.351.351Z" transform="translate(-37.583 -29.219)" fill="#2a7de1"/>
  <path id="Trazado_1516" data-name="Trazado 1516" d="M30.813,75.707a1.4,1.4,0,0,0,1.192-2.525.758.758,0,0,1-.351-.982.845.845,0,0,1,.351-.351l1.789-.842L30.568,69.5a3.5,3.5,0,0,0-1.262,4.8A3.441,3.441,0,0,0,30.813,75.707Z" transform="translate(-19.287 -45.487)" fill="#2a7de1"/>
  <path id="Trazado_1517" data-name="Trazado 1517" d="M31.971,47.235a1.4,1.4,0,0,0-.842-2.665,1.638,1.638,0,0,0-.351.175A3.525,3.525,0,0,0,29.1,49.41a3.565,3.565,0,0,0,1.683,1.683l4.033,1.894,5.611,2.665a.758.758,0,0,1,.351.982.845.845,0,0,1-.351.351,1.4,1.4,0,0,0,.842,2.665,1.638,1.638,0,0,0,.351-.175A3.525,3.525,0,0,0,43.3,54.81a3.565,3.565,0,0,0-1.683-1.683L36,50.5,31.971,48.6a.758.758,0,0,1-.351-.982.637.637,0,0,1,.351-.386Z" transform="translate(-19.253 -29.254)" fill="#2a7de1"/>
</svg>
