<svg xmlns="http://www.w3.org/2000/svg" width="36.246" height="33.034" viewBox="0 0 36.246 33.034">
  <g id="noun_Briefcase_2139783" transform="translate(-7.1 -10.9)">
    <path id="Trazado_1495" data-name="Trazado 1495" d="M43.345,50.465v12a4.056,4.056,0,0,1-4.055,4.055H11.155A4.056,4.056,0,0,1,7.1,62.462v-12A.469.469,0,0,1,7.565,50H22.73a.182.182,0,0,1,.169.169v1.563a.667.667,0,0,0,.676.676h3.3a.667.667,0,0,0,.676-.676V50.169A.182.182,0,0,1,27.715,50H42.881A.469.469,0,0,1,43.345,50.465Z" transform="translate(0 -22.583)" fill="#2a7de1"/>
    <path id="Trazado_1496" data-name="Trazado 1496" d="M39.29,16.012H30.968V12.548A1.65,1.65,0,0,0,29.32,10.9h-8.2a1.65,1.65,0,0,0-1.648,1.648v3.464H11.155A4.056,4.056,0,0,0,7.1,20.067V24.46a.469.469,0,0,0,.465.465H22.73a.182.182,0,0,0,.169-.169v-.929a.667.667,0,0,1,.676-.676h3.3a.667.667,0,0,1,.676.676v.929a.182.182,0,0,0,.169.169H42.881a.469.469,0,0,0,.465-.465V20.067A4.056,4.056,0,0,0,39.29,16.012Zm-10.6,0H21.759V13.392a.273.273,0,0,1,.253-.253h6.421a.273.273,0,0,1,.253.253v2.619Z" fill="#2a7de1"/>
  </g>
</svg>
