<svg id="noun_Doctor_1030191" xmlns="http://www.w3.org/2000/svg" width="28.626" height="31.881" viewBox="0 0 28.626 31.881">
  <g id="Grupo_267" data-name="Grupo 267">
    <path id="Trazado_520" data-name="Trazado 520" d="M9.595,64.137c0,4.7,3.438,4.936,7.939,4.936.491,0,.994,0,1.508,0h9.73c.512,0,1.016,0,1.508,0,4.5,0,7.94-.231,7.94-4.936,0-8.194-4.262-9.011-8.177-9.351,1.28.768-3.35,3.056-6.136,3.056-2.988,0-5.437-1.256-5.705-2.858C18.2,54.983,9.595,56.246,9.595,64.137Z" transform="translate(-9.595 -37.192)" fill="#2a7de1"/>
    <path id="Trazado_521" data-name="Trazado 521" d="M35.642,23.771c4.352,0,7.877-6.543,7.877-10.893a7.877,7.877,0,1,0-15.755,0C27.765,17.228,31.292,23.771,35.642,23.771Z" transform="translate(-21.329 -5)" fill="#2a7de1"/>
  </g>
</svg>
