<svg id="noun_Calendar_2305597" xmlns="http://www.w3.org/2000/svg" width="29.863" height="33.446" viewBox="0 0 29.863 33.446">
  <g id="Grupo_667" data-name="Grupo 667">
    <path id="Trazado_1538" data-name="Trazado 1538" d="M3.315,289.592a2.389,2.389,0,0,0-2.389,2.389V318.26a2.389,2.389,0,0,0,2.389,2.389H28.4a2.389,2.389,0,0,0,2.389-2.389v-26.28a2.389,2.389,0,0,0-2.389-2.389H27.206v2.389H28.4v4.778H3.315v-4.778H4.51v-2.389Zm0,9.556H28.4V318.26H3.315Z" transform="translate(-0.926 -287.203)" fill="#2a7de1"/>
    <path id="Trazado_1539" data-name="Trazado 1539" d="M2.249,296.23H4.638v-7.167H2.249Z" transform="translate(3.723 -289.062)" fill="#2a7de1"/>
    <path id="Trazado_1540" data-name="Trazado 1540" d="M8.078,296.23v-7.167H5.688v7.167Z" transform="translate(15.813 -289.062)" fill="#2a7de1"/>
    <path id="Trazado_1541" data-name="Trazado 1541" d="M3.307,291.981v-2.389h8.362v2.389Z" transform="translate(7.443 -287.203)" fill="#2a7de1"/>
    <path id="Trazado_1542" data-name="Trazado 1542" d="M24.416,291.973V308.7H1.72V291.973Z" transform="translate(1.864 -278.833)" fill="#2a7de1"/>
  </g>
</svg>
