<svg xmlns="http://www.w3.org/2000/svg" width="40.076" height="21.245" viewBox="0 0 40.076 21.245">
  <g id="Grupo_691" data-name="Grupo 691" transform="translate(-723.78 -605.635)">
    <g id="noun_Doctor_1030191" transform="translate(744.78 605.635)">
      <g id="Grupo_267" data-name="Grupo 267">
        <path id="Trazado_520" data-name="Trazado 520" d="M9.595,61.018c0,3.135,2.291,3.289,5.291,3.289l1.005,0h6.484l1,0c3,0,5.291-.154,5.291-3.289,0-5.46-2.841-6-5.449-6.232.853.512-2.232,2.036-4.089,2.036-1.991,0-3.623-.837-3.8-1.9C15.331,54.917,9.595,55.759,9.595,61.018Z" transform="translate(-9.595 -43.062)" fill="#2a7de1"/>
        <path id="Trazado_521" data-name="Trazado 521" d="M33.014,17.509c2.9,0,5.249-4.36,5.249-7.259a5.249,5.249,0,1,0-10.5,0C27.765,13.149,30.115,17.509,33.014,17.509Z" transform="translate(-23.476 -5)" fill="#2a7de1"/>
      </g>
    </g>
    <g id="noun_Doctor_1030191-2" data-name="noun_Doctor_1030191" transform="translate(723.78 605.635)">
      <g id="Grupo_267-2" data-name="Grupo 267">
        <path id="Trazado_520-2" data-name="Trazado 520" d="M9.595,61.018c0,3.135,2.291,3.289,5.291,3.289l1.005,0h6.484l1,0c3,0,5.291-.154,5.291-3.289,0-5.46-2.841-6-5.449-6.232.853.512-2.232,2.036-4.089,2.036-1.991,0-3.623-.837-3.8-1.9C15.331,54.917,9.595,55.759,9.595,61.018Z" transform="translate(-9.595 -43.062)" fill="#2a7de1"/>
        <path id="Trazado_521-2" data-name="Trazado 521" d="M33.014,17.509c2.9,0,5.249-4.36,5.249-7.259a5.249,5.249,0,1,0-10.5,0C27.765,13.149,30.115,17.509,33.014,17.509Z" transform="translate(-23.476 -5)" fill="#2a7de1"/>
      </g>
    </g>
  </g>
</svg>
