<svg xmlns="http://www.w3.org/2000/svg" width="22.644" height="31.151" viewBox="0 0 22.644 31.151">
  <g id="Grupo_655" data-name="Grupo 655" transform="translate(0 0)">
    <path id="Trazado_1534" data-name="Trazado 1534" d="M38.377,8.975,41.032,13.6a1.432,1.432,0,0,1-.492,1.967l-3.934,2.262c2.753,4.622,5.409,9.342,8.162,13.964L48.6,29.527a1.464,1.464,0,0,1,1.967.59l2.655,4.72a1.34,1.34,0,0,1-.492,1.868L48.9,38.968C41.917,43,25.494,14.678,32.476,10.646L36.41,8.385A1.464,1.464,0,0,1,38.377,8.975Z" transform="translate(-30.783 -8.208)" fill="#2a7de1" fill-rule="evenodd"/>
  </g>
</svg>
