<svg xmlns="http://www.w3.org/2000/svg" width="33.146" height="32.952" viewBox="0 0 33.146 32.952">
  <g id="Grupo_694" data-name="Grupo 694" transform="translate(-705.083 -744.095)">
    <path id="Trazado_475" data-name="Trazado 475" d="M4294.089,12392.125l10.372,8.219h9.978s10.922-9.34,11.071-8.862,0,18.065,0,18.065h-31.421Z" transform="translate(-3588 -11633)" fill="#2a7de1" stroke="#2a7de1" stroke-width="1"/>
    <path id="Trazado_308" data-name="Trazado 308" d="M55.235,5.682l-.724-.624-3.02-2.6a1.877,1.877,0,0,0-2.346,0l-3.02,2.6-.524.449" transform="translate(671.334 742.906)" fill="none" stroke="#2a7de1" stroke-linejoin="round" stroke-width="1.5"/>
    <path id="Trazado_309" data-name="Trazado 309" d="M5.245,42.55l-3.22,2.771H2v.025H2V63.668H33.427V45.346h0v-.025H33.4L30.132,42.5" transform="translate(704.051 712.554)" fill="none" stroke="#2a7de1" stroke-linejoin="round" stroke-width="1.5"/>
    <g id="Grupo_693" data-name="Grupo 693">
      <path id="Trazado_476" data-name="Trazado 476" d="M4309.833,12377.66c.482.243,15.957,13.07,15.957,13.07l-11.478,10.559h-10.066l-11.163-10.559Z" transform="translate(-3588 -11633)" fill="#2a7de1"/>
      <g id="Grupo_692" data-name="Grupo 692">
        <path id="Trazado_477" data-name="Trazado 477" d="M4297.354,12381.5v12.75l7.45,6.021s9.68.874,10.121,0,7.615-6.021,7.615-6.021l-.5-12.75Z" transform="translate(-3588 -11633)" fill="#e1ebf8"/>
        <path id="Trazado_310" data-name="Trazado 310" d="M15.3,29.256V16.6H40.087V29.68" transform="translate(694.07 731.988)" fill="rgba(255,255,255,0)" stroke="#2a7de1" stroke-width="1.5"/>
        <path id="Trazado_314" data-name="Trazado 314" d="M56.112,40.62h-3V37.6H50.3v3.02h-3v2.846h3v3.045h2.821V43.466h3Z" transform="translate(670.059 716.23)" fill="#2a7de1"/>
        <path id="Trazado_311" data-name="Trazado 311" d="M33.327,56.5,22.568,65.411H12.509L1.8,56.5" transform="translate(704.2 702.048)" fill="rgba(0,0,0,0)" stroke="#e1ebf8" stroke-linejoin="round" stroke-width="1.5"/>
        <g id="Grupo_64" data-name="Grupo 64" transform="translate(706.974 767.435)">
          <path id="Trazado_312" data-name="Trazado 312" d="M5.7,100.662l3.495-3.02,2.646-2.3c.3-.275.724-.624,1.123-.974L15.585,92.1" transform="translate(-5.7 -92.1)" fill="rgba(0,0,0,0)" stroke="#e1ebf8" stroke-linejoin="round" stroke-width="1.5"/>
          <path id="Trazado_313" data-name="Trazado 313" d="M84.5,92.1l2.621,2.272c.4.349.824.7,1.123.974l2.646,2.3,3.769,3.27" transform="translate(-64.83 -92.1)" fill="rgba(0,0,0,0)" stroke="#e1ebf8" stroke-linejoin="round" stroke-width="1.5"/>
        </g>
      </g>
    </g>
  </g>
</svg>
