<svg id="Grupo_655" data-name="Grupo 655" xmlns="http://www.w3.org/2000/svg" width="51.087" height="59.586" viewBox="0 0 51.087 59.586">
  <path id="Trazado_1534" data-name="Trazado 1534" d="M78.6,48.234l-3.574-2.821c6.96-13.355-2.445-29.532-17.305-30.1L57.158,10.8C75.968,10.991,88.006,31.682,78.6,48.234ZM45.308,9.674l5.079,8.841a2.74,2.74,0,0,1-.94,3.762L41.922,26.6c5.267,8.841,10.345,17.869,15.612,26.71l7.336-4.326a2.8,2.8,0,0,1,3.762,1.129l5.079,9.029a2.563,2.563,0,0,1-.94,3.574l-7.336,4.326c-13.355,7.712-44.768-46.46-31.412-54.172l7.524-4.326A2.8,2.8,0,0,1,45.308,9.674ZM71.453,42.591,67.691,39.77a11.38,11.38,0,0,0-8.841-15.236l-.564-4.7C69.2,20.772,76.156,32.622,71.453,42.591Z" transform="translate(-30.783 -8.208)" fill="#2a7de1" fill-rule="evenodd"/>
</svg>
