<svg xmlns="http://www.w3.org/2000/svg" width="162.539" height="146.332" viewBox="0 0 162.539 146.332">
  <g id="noun_Alert_574450" transform="translate(84.719 -112.598)">
    <g id="Grupo_4118" data-name="Grupo 4118" transform="translate(-84.719 112.598)">
      <g id="Grupo_4115" data-name="Grupo 4115">
        <path id="Trazado_1532" data-name="Trazado 1532" d="M141.506,146.93H21.044A21,21,0,0,1,2.858,115.412L63.089,11.1a21.009,21.009,0,0,1,36.385,0l60.218,104.313a21.009,21.009,0,0,1-18.186,31.518ZM81.275,14.141a7.293,7.293,0,0,0-6.454,3.73L14.576,122.184a7.466,7.466,0,0,0,6.468,11.2H141.506a7.466,7.466,0,0,0,6.454-11.2L87.742,17.871A7.323,7.323,0,0,0,81.275,14.141Z" transform="translate(0.001 -0.598)" fill="#d5070f"/>
      </g>
      <g id="Grupo_4116" data-name="Grupo 4116" transform="translate(75.654 43.712)">
        <path id="Trazado_1533" data-name="Trazado 1533" d="M12.357,54.653a6.768,6.768,0,0,1-6.772-6.772V10.6a6.772,6.772,0,0,1,13.543,0V47.881A6.768,6.768,0,0,1,12.357,54.653Z" transform="translate(-5.585 -3.825)" fill="#d5070f"/>
      </g>
      <g id="Grupo_4117" data-name="Grupo 4117" transform="translate(74.297 102.205)">
        <circle id="Elipse_76" data-name="Elipse 76" cx="8.126" cy="8.126" r="8.126" fill="#d5070f"/>
      </g>
    </g>
  </g>
</svg>
