<svg xmlns="http://www.w3.org/2000/svg" width="36.253" height="40.373" viewBox="0 0 36.253 40.373">
  <g id="noun_Doctor_1030191" transform="translate(0 0.001)">
    <g id="Grupo_267" data-name="Grupo 267">
      <path id="Trazado_520" data-name="Trazado 520" d="M16.758,59.507a1.476,1.476,0,0,1,.6.667,5.571,5.571,0,0,1,2.453,2.759.96.96,0,0,1,.043.721,8.687,8.687,0,0,1,.611,3.011c0,1.286,0,2.5-1.4,2.815a.843.843,0,0,1-.541.2h-.937a.853.853,0,0,1-.852-.852l0-.06a.858.858,0,0,1,.85-.792h.937a.839.839,0,0,1,.28.048.269.269,0,0,0,.074-.029,4.933,4.933,0,0,0,.1-1.325,7.139,7.139,0,0,0-.514-2.483.958.958,0,0,1-.391-.419c-.568-1.189-1.34-1.957-1.968-1.957s-1.453.83-2.018,2.065a.966.966,0,0,1-.454.463,6.96,6.96,0,0,0-.458,2.33,4.606,4.606,0,0,0,.119,1.328.475.475,0,0,0,.1.035.854.854,0,0,1,.306-.057h.938a.853.853,0,0,1,.845.753l0,.009,0,.057a.861.861,0,0,1-.851.886H13.7a.844.844,0,0,1-.514-.175,1.623,1.623,0,0,1-1.153-.722,4,4,0,0,1-.342-2.113,8.558,8.558,0,0,1,.591-2.956.945.945,0,0,1,.056-.639A7.109,7.109,0,0,1,13.8,60.92a4.045,4.045,0,0,1,.982-.707,1.5,1.5,0,0,1,.631-.709,6.027,6.027,0,0,1,2.217-4.524c-4.679.462-8.036,1.681-8.036,11.675,0,5.958,4.354,6.251,10.054,6.251.621,0,1.259,0,1.91,0H33.882c.648,0,1.287,0,1.909,0,5.7,0,10.056-.292,10.056-6.251,0-10.377-3.621-11.294-8.579-11.725a6.038,6.038,0,0,1,2.919,4.66,2.918,2.918,0,1,1-1.347.018,4.7,4.7,0,0,0-4-4.141c-.659,1.832-3.592,3.215-7.121,3.215-3.784,0-6.886-1.59-7.225-3.62A4.7,4.7,0,0,0,16.758,59.507Zm14.1,7.622a.3.3,0,0,1,.314-.28H32.88v-1.7a.3.3,0,0,1,.279-.314h1.683a.3.3,0,0,1,.279.314v1.7h1.705a.3.3,0,0,1,.314.28v1.682a.3.3,0,0,1-.314.28H35.123v1.7a.3.3,0,0,1-.279.314H33.16a.3.3,0,0,1-.279-.314v-1.7H31.175a.3.3,0,0,1-.314-.28Z" transform="translate(-9.595 -32.53)" fill="#fff"/>
      <path id="Trazado_521" data-name="Trazado 521" d="M37.741,28.772c5.511,0,9.976-8.286,9.976-13.795a9.976,9.976,0,1,0-19.952,0C27.765,20.486,32.232,28.772,37.741,28.772Z" transform="translate(-19.614 -5)" fill="#fff"/>
      <circle id="Elipse_28" data-name="Elipse 28" cx="1.346" cy="1.346" r="1.346" transform="translate(28.608 28.556)" fill="#fff"/>
    </g>
  </g>
</svg>
