<svg xmlns="http://www.w3.org/2000/svg" width="142.817" height="142.817" viewBox="0 0 142.817 142.817">
  <g id="noun_Check_1905028" transform="translate(-3.75 -3.75)">
    <g id="Grupo_745" data-name="Grupo 745" transform="translate(3.75 3.75)">
      <path id="Trazado_1529" data-name="Trazado 1529" d="M75.159,3.75a71.409,71.409,0,1,0,71.409,71.409A71.49,71.49,0,0,0,75.159,3.75ZM114.74,60.61,69.134,106.216A7.513,7.513,0,0,1,63.86,108.4v3.088l-.066-3.088a7.5,7.5,0,0,1-5.3-2.279L35.485,82.273A7.458,7.458,0,0,1,46.218,71.916L63.956,90.3l40.239-40.237A7.457,7.457,0,1,1,114.74,60.61Z" transform="translate(-3.75 -3.75)" fill="#007ee5"/>
    </g>
  </g>
</svg>
