<svg xmlns="http://www.w3.org/2000/svg" width="35.34" height="39.58" viewBox="0 0 35.34 39.58">
  <g id="noun_Calendar_2305597" transform="translate(0 -0.001)">
    <g id="Grupo_667" data-name="Grupo 667">
      <path id="Trazado_1538" data-name="Trazado 1538" d="M3.753,289.592a2.827,2.827,0,0,0-2.827,2.827v31.1a2.827,2.827,0,0,0,2.827,2.827H33.439a2.827,2.827,0,0,0,2.827-2.827v-31.1a2.827,2.827,0,0,0-2.827-2.827H32.025v2.827h1.414v5.654H3.753v-5.654H5.167v-2.827Zm0,11.309H33.439v22.618H3.753Z" transform="translate(-0.926 -286.765)" fill="#fff"/>
      <path id="Trazado_1539" data-name="Trazado 1539" d="M2.249,297.544H5.076v-8.482H2.249Z" transform="translate(4.819 -289.062)" fill="#fff"/>
      <path id="Trazado_1540" data-name="Trazado 1540" d="M8.516,297.544v-8.482H5.688v8.482Z" transform="translate(19.756 -289.062)" fill="#fff"/>
      <path id="Trazado_1541" data-name="Trazado 1541" d="M3.307,292.419v-2.827h9.9v2.827Z" transform="translate(9.415 -286.765)" fill="#fff"/>
      <path id="Trazado_1542" data-name="Trazado 1542" d="M28.578,291.973v19.79H1.72v-19.79Z" transform="translate(2.521 -276.423)" fill="#fff"/>
    </g>
  </g>
</svg>
