<svg xmlns="http://www.w3.org/2000/svg" width="36.253" height="40.373" viewBox="0 0 36.253 40.373">
  <g id="noun_Doctor_1030191" transform="translate(0 0)">
    <g id="Grupo_267" data-name="Grupo 267">
      <path id="Trazado_520" data-name="Trazado 520" d="M9.595,66.629c0,5.957,4.354,6.251,10.054,6.251.621,0,1.259,0,1.91,0H33.882c.648,0,1.287,0,1.909,0,5.7,0,10.056-.292,10.056-6.251,0-10.377-5.4-11.412-10.356-11.843,1.621.972-4.242,3.87-7.771,3.87-3.784,0-6.886-1.59-7.225-3.62C20.495,55.036,9.595,56.635,9.595,66.629Z" transform="translate(-9.595 -32.505)" fill="#fff"/>
      <path id="Trazado_521" data-name="Trazado 521" d="M37.741,28.772c5.511,0,9.976-8.286,9.976-13.795a9.976,9.976,0,1,0-19.952,0C27.765,20.486,32.232,28.772,37.741,28.772Z" transform="translate(-19.614 -5)" fill="#fff"/>
    </g>
  </g>
</svg>
